<svg width="375" height="99" viewBox="0 0 375 99" fill="none" xmlns="http://www.w3.org/2000/svg">
<path d="M201.906 105.704H137.036V66.7529L169.471 58.0649L201.906 66.7529V105.704Z" fill="#332C5A" fill-opacity="0.5"/>
<path d="M329.91 105.704H285.746V40.2543L307.9 25.3399L329.91 40.2543V105.704Z" fill="#332C5A" fill-opacity="0.5"/>
<path d="M118.791 10.4257H79.9848V105.704H118.791V10.4257Z" fill="#332C5A" fill-opacity="0.5"/>
<path d="M285.746 105.704H246.939V10.4257H261.274C274.741 10.4257 285.746 21.4305 285.746 34.8969V105.704Z" fill="#332C5A" fill-opacity="0.5"/>
<path d="M227.246 79.4952H149.344V106.283H227.246V79.4952Z" fill="#332C5A"/>
<path d="M219.427 54.8792H192.639V81.6672H219.427V54.8792Z" fill="#332C5A"/>
<path d="M26.988 0H-36V105.559H26.988V0Z" fill="#332C5A"/>
<path d="M89.8312 105.704H26.988V60.8161L89.8312 36.6345V105.704Z" fill="#332C5A"/>
<path d="M149.489 105.704H112.71V44.888L131.099 31.132L149.489 44.888V105.704Z" fill="#332C5A"/>
<path d="M304.714 105.704H276.623V72.6896L290.669 65.3048L304.714 72.6896V105.704Z" fill="#332C5A"/>
<path d="M353.946 20.5616H314.85V17.5208L334.398 9.99121L353.946 17.5208V20.5616Z" fill="#332C5A"/>
<path d="M256.496 18.8239H227.102V105.849H256.496V18.8239Z" fill="#332C5A"/>
<path d="M251.138 -6.10352e-05H232.604V87.0247H251.138V-6.10352e-05Z" fill="#332C5A"/>
<path d="M507 51.9832H353.512V153.343H507V51.9832Z" fill="#332C5A"/>
<path d="M353.946 37.648H314.85V124.673H353.946V37.648Z" fill="#332C5A"/>
<path d="M326.724 20.5615H318.036V107.586H326.724V20.5615Z" fill="#332C5A"/>
<path d="M350.761 20.5615H342.073V107.586H350.761V20.5615Z" fill="#332C5A"/>
</svg>
