<svg width="67" height="84" viewBox="0 0 67 84" fill="none" xmlns="http://www.w3.org/2000/svg">
<g clip-path="url(#clip0_6_332)">
<path d="M42.1268 46.67L34.3548 50.7075L51.1105 82.9613L58.8825 78.9238L42.1268 46.67Z" fill="#EEA86C"/>
<path d="M45.3235 0H21.6765C9.63399 0 0 9.63399 0 21.6765V54.0817V83.6405H8.75817V59.7745C9.85294 56.9281 12.0425 53.4248 15.5458 53.2059H44.6667C56.9281 53.2059 67 43.134 67 30.8726V21.6765C67 9.63399 57.366 0 45.3235 0ZM58.2418 30.8726C58.2418 38.317 52.1111 44.4477 44.6667 44.4477H15.5458H15.3268C12.9183 44.6667 10.9477 45.3235 8.97712 46.4183V21.6765C8.75817 14.6699 14.6699 8.75817 21.6765 8.75817H45.3235C52.549 8.75817 58.2418 14.6699 58.2418 21.6765V30.8726Z" fill="#EEA86C"/>
</g>
<defs>
<clipPath id="clip0_6_332">
<rect width="67" height="83.4216" fill="white"/>
</clipPath>
</defs>
</svg>
