<svg width="34" height="40" viewBox="0 0 34 40" fill="none" xmlns="http://www.w3.org/2000/svg">
<path fill-rule="evenodd" clip-rule="evenodd" d="M16.6691 0C18.8954 0 30.5775 4.01061 32.124 5.55708C33.413 6.84614 33.3934 7.8876 33.303 12.8788C33.2676 14.8792 33.2185 17.6046 33.2185 21.3775C33.2185 34.9008 17.7538 39.7387 17.0955 39.9371C16.956 39.9803 16.8125 40 16.6691 40C16.5256 40 16.3822 39.9803 16.2427 39.9371C15.5844 39.7387 0.119651 34.9008 0.119651 21.3775C0.119651 17.6105 0.0705259 14.885 0.0351555 12.8847C0.0190142 11.9923 0.00512873 11.2261 0.000559466 10.5621L0 9.81286C0.0168562 7.3514 0.247869 6.52388 1.21613 5.55708C2.75868 4.01061 14.4407 0 16.6691 0ZM16.6691 2.94753C15.0027 2.94753 4.48986 6.64964 3.27744 7.66162C2.91981 8.02122 2.90605 8.6461 2.98269 12.8296C3.01806 14.8457 3.06718 17.585 3.06718 21.3775C3.06718 31.5976 14.311 36.1348 16.6671 36.9699C19.0212 36.1309 30.271 31.5681 30.271 21.3775C30.271 17.5811 30.3201 14.8399 30.3574 12.8237C30.4321 8.64413 30.4183 8.01926 30.0391 7.64197C28.8502 6.64964 18.3354 2.94753 16.6691 2.94753ZM23.9819 14.4223C24.5577 14.998 24.5577 15.9314 23.9819 16.5072L16.3222 24.1688C16.1022 24.3905 15.8179 24.5341 15.5128 24.5827L15.2808 24.6011C14.8897 24.6011 14.5144 24.4459 14.2374 24.1688L10.5195 20.447C9.94575 19.8713 9.94575 18.9359 10.5215 18.3622C11.0953 17.7864 12.0306 17.7864 12.6064 18.3622L15.2808 21.0405L21.899 14.4223C22.4747 13.8465 23.4061 13.8465 23.9819 14.4223Z" fill="#EEA86C"/>
</svg>
