<svg width="24" height="24" viewBox="0 0 24 24" fill="none" xmlns="http://www.w3.org/2000/svg">
<path fill-rule="evenodd" clip-rule="evenodd" d="M12.0169 2C14.7085 2 16.932 4.05089 17.2062 6.67391L17.2827 6.67481C18.7758 6.67481 20.5912 7.66645 21.2039 10.4478L22.0164 16.7364C22.3078 18.766 21.9433 20.394 20.931 21.5618C19.924 22.7233 18.3299 23.3381 16.3209 23.3381H7.72463C5.5179 23.3381 3.9805 22.7974 3.02387 21.6864C2.06313 20.5722 1.74185 18.9009 2.06931 16.7199L2.86838 10.5147C3.39355 7.66954 5.31401 6.67481 6.80096 6.67481C6.92933 5.4911 7.46308 4.365 8.30984 3.52093C9.28294 2.554 10.6247 2 11.9953 2H12.0169ZM17.2827 8.21942H6.80096C6.34684 8.21942 4.82901 8.40271 4.39343 10.7546L3.59847 16.9331C3.34 18.6661 3.53977 19.9204 4.19366 20.6793C4.8393 21.4289 5.99467 21.7934 7.72463 21.7934H16.3209C17.4001 21.7934 18.8736 21.5782 19.7633 20.5506C20.4697 19.736 20.7127 18.523 20.4862 16.9444L19.684 10.7124C19.3422 9.17708 18.4401 8.21942 17.2827 8.21942ZM15.0201 11.0863C15.4464 11.0863 15.8161 11.4323 15.8161 11.8586C15.8161 12.2849 15.4938 12.6309 15.0675 12.6309H15.0201C14.5938 12.6309 14.2478 12.2849 14.2478 11.8586C14.2478 11.4323 14.5938 11.0863 15.0201 11.0863ZM9.01665 11.0863C9.44296 11.0863 9.81264 11.4323 9.81264 11.8586C9.81264 12.2849 9.4893 12.6309 9.06299 12.6309H9.01665C8.59034 12.6309 8.24434 12.2849 8.24434 11.8586C8.24434 11.4323 8.59034 11.0863 9.01665 11.0863ZM12.0138 3.54461H11.9984C11.0294 3.54461 10.0851 3.93488 9.40033 4.61554C8.84252 5.17084 8.4777 5.90085 8.35969 6.67433L15.6495 6.67462C15.3849 4.90528 13.8549 3.54461 12.0138 3.54461Z" fill="#82A4D0"/>
</svg>
