<svg width="22" height="22" viewBox="0 0 22 22" fill="none" xmlns="http://www.w3.org/2000/svg">
<path fill-rule="evenodd" clip-rule="evenodd" d="M11 0C17.0653 0 22 4.93466 22 11C22 17.0653 17.0653 22 11 22C4.93466 22 0 17.0653 0 11C0 4.93466 4.93466 0 11 0ZM11 1.59251C5.81266 1.59251 1.59251 5.81372 1.59251 11C1.59251 16.1873 5.81266 20.4075 11 20.4075C16.1873 20.4075 20.4075 16.1873 20.4075 11C20.4075 5.81372 16.1873 1.59251 11 1.59251ZM15.1104 6.89016C15.3195 7.10037 15.396 7.40931 15.3068 7.69066L13.6166 13.0935C13.5391 13.343 13.3427 13.5384 13.0943 13.6159L7.6914 15.3071C7.61284 15.3315 7.53215 15.3432 7.45359 15.3432C7.2455 15.3432 7.04166 15.2615 6.88984 15.1107C6.68069 14.9005 6.60425 14.5915 6.69343 14.3102L8.38467 8.90734C8.46217 8.65678 8.65752 8.46249 8.90596 8.38499L14.3088 6.69375C14.5923 6.6035 14.9002 6.68101 15.1104 6.89016ZM13.3331 8.6674L9.77971 9.78003L8.66814 13.3335L12.2205 12.2208L13.3331 8.6674Z" fill="#82A4D0"/>
</svg>
