<svg width="19" height="16" viewBox="0 0 19 16" fill="none" xmlns="http://www.w3.org/2000/svg">
<path fill-rule="evenodd" clip-rule="evenodd" d="M13.306 0C16.0939 0 18.1961 2.22933 18.1961 5.18564V10.8209C18.1961 12.3339 17.6503 13.7009 16.6582 14.6708C15.7682 15.5397 14.6137 16 13.3194 16H5.07038C3.77856 16 2.62489 15.5405 1.7341 14.6708C0.742005 13.7009 0.196144 12.3339 0.196144 10.8209V5.18564C0.196144 2.22933 2.29838 0 5.08628 0H13.306ZM13.306 1.23077H5.08628C2.9807 1.23077 1.45196 2.89395 1.45196 5.18564V10.8209C1.45196 12.0049 1.86721 13.0626 2.6207 13.7986C3.27038 14.4345 4.11847 14.7692 5.07289 14.7692H13.306C13.3077 14.7676 13.3144 14.7692 13.3194 14.7692C14.2747 14.7692 15.1219 14.4345 15.7716 13.7986C16.5259 13.0626 16.9403 12.0049 16.9403 10.8209V5.18564C16.9403 2.89395 15.4116 1.23077 13.306 1.23077ZM14.6254 5.02876C14.844 5.29214 14.8029 5.67943 14.5342 5.8944L10.8136 8.85809C10.3431 9.22404 9.78052 9.40702 9.21875 9.40702C8.65866 9.40702 8.10024 9.22568 7.63307 8.86302L3.87819 5.89604C3.60777 5.68271 3.56591 5.2946 3.78275 5.0304C4.00126 4.76702 4.39642 4.72517 4.666 4.93768L8.41754 7.90137C8.88889 8.26732 9.5528 8.26732 10.0275 7.89809L13.7414 4.93932C14.0109 4.72353 14.4061 4.76455 14.6254 5.02876Z" fill="#B1B8C7"/>
</svg>
