<svg width="16" height="16" viewBox="0 0 16 16" fill="none" xmlns="http://www.w3.org/2000/svg">
<g clip-path="url(#clip0_38_1523)">
<path d="M13.6034 7.95531C13.6034 7.419 13.514 6.88268 13.3352 6.34637L14.8547 5.18436L13.7821 3.30727L11.9944 4.11174C11.2793 3.30727 10.2961 2.77095 9.31285 2.5028L9.04469 0.536316H6.89944L6.63128 2.5028C5.55866 2.77095 4.6648 3.30727 3.94972 4.11174L2.07263 3.30727L1 5.18436L2.51955 6.34637C2.43017 6.88268 2.34078 7.419 2.34078 7.95531C2.34078 8.49162 2.43017 9.02794 2.60894 9.56425L1 10.7263L2.07263 12.6034L3.86034 11.7989C4.57542 12.6034 5.55866 13.1397 6.5419 13.4078L6.81006 15.3743H8.95531L9.22346 13.4078C10.2961 13.1397 11.1899 12.6034 11.905 11.7989L13.6927 12.6034L14.7654 10.7263L13.2458 9.56425C13.514 9.02794 13.6034 8.49162 13.6034 7.95531ZM7.97207 10.2793C6.72067 10.2793 5.64804 9.29609 5.64804 7.95531C5.64804 6.70391 6.72067 5.63129 7.97207 5.63129C9.22346 5.63129 10.2961 6.70391 10.2961 7.95531C10.2961 9.29609 9.31285 10.2793 7.97207 10.2793Z" stroke="#EEA86C" stroke-width="1.11732" stroke-miterlimit="10"/>
</g>
<defs>
<clipPath id="clip0_38_1523">
<rect width="16" height="16" fill="white"/>
</clipPath>
</defs>
</svg>
