<svg width="23" height="21" viewBox="0 0 23 21" fill="none" xmlns="http://www.w3.org/2000/svg">
<path d="M4.89396 7.50857C6.72197 7.50857 8.20387 6.05158 8.20387 4.25429C8.20387 2.45699 6.72197 1 4.89396 1C3.06594 1 1.58405 2.45699 1.58405 4.25429C1.58405 6.05158 3.06594 7.50857 4.89396 7.50857Z" stroke="white" stroke-width="1.675" stroke-miterlimit="10"/>
<path d="M18.7178 20.1429C20.5458 20.1429 22.0277 18.6859 22.0277 16.8886C22.0277 15.0913 20.5458 13.6343 18.7178 13.6343C16.8897 13.6343 15.4078 15.0913 15.4078 16.8886C15.4078 18.6859 16.8897 20.1429 18.7178 20.1429Z" stroke="white" stroke-width="1.675" stroke-miterlimit="10"/>
<path d="M22.6118 4.25433H8.20392" stroke="white" stroke-width="1.675" stroke-miterlimit="10"/>
<path d="M15.4079 16.6971H1" stroke="white" stroke-width="1.675" stroke-miterlimit="10"/>
</svg>
