<svg width="24" height="24" viewBox="0 0 24 24" fill="none" xmlns="http://www.w3.org/2000/svg">
<g clip-path="url(#clip0_3_138)">
<path d="M9.53824 1.9763L9.57258 1.98757L9.59294 2.00624L9.72686 2.04775C9.97294 2.12404 10.1829 2.20316 10.3749 2.30506L10.3971 2.31684L10.4202 2.3268L10.8534 2.5138C10.9015 2.54019 10.9655 2.5821 11.0479 2.63933C11.061 2.64843 11.0758 2.65883 11.0918 2.67006C11.1611 2.71865 11.2523 2.7827 11.3229 2.82423L11.3228 2.82429L11.3307 2.82876C11.3567 2.84355 11.3807 2.85714 11.4031 2.86978C11.5046 2.92714 11.5716 2.96501 11.6282 3.0069L11.9993 3.28142L12.3708 3.00748C13.5963 2.10385 15.0837 1.6147 16.6156 1.62516V1.62518H16.6198C17.3209 1.62518 18.0109 1.72083 18.6593 1.93076L18.6593 1.93078L18.6647 1.93249C22.6762 3.1909 24.2014 7.45657 22.9525 11.3111C22.2292 13.3104 21.0485 15.1362 19.5026 16.6289C17.226 18.7558 14.7282 20.645 12.0394 22.274C9.33425 20.6542 6.81572 18.7612 4.51192 16.6176C2.97533 15.1236 1.79316 13.3081 1.05828 11.3081C-0.210321 7.45898 1.3101 3.19089 5.37336 1.90782L5.37339 1.90789L5.38248 1.90487C5.67939 1.80608 5.98528 1.73574 6.29218 1.69484H6.39595H6.43973L6.48309 1.68873C6.79007 1.64551 7.09571 1.62518 7.40394 1.62518H7.52659C8.22015 1.64637 8.88966 1.76346 9.53824 1.9763Z" stroke="#82A4D0" stroke-width="1.25"/>
</g>
<defs>
<clipPath id="clip0_3_138">
<rect width="24" height="24" fill="white"/>
</clipPath>
</defs>
</svg>
