<svg width="19" height="17" viewBox="0 0 19 17" fill="none" xmlns="http://www.w3.org/2000/svg">
<path fill-rule="evenodd" clip-rule="evenodd" d="M9.64182 0.905846C11.0714 0.00969221 12.9705 -0.237883 14.6112 0.28342C18.1799 1.42453 19.2877 5.28201 18.2968 8.35142C16.7679 13.1722 10.2379 16.7681 9.96098 16.9189C9.86251 16.973 9.75349 17 9.64446 17C9.53544 17 9.4273 16.9738 9.32882 16.9207C9.05363 16.7716 2.57117 13.2288 0.991213 8.35229C0.990334 8.35229 0.990334 8.35142 0.990334 8.35142C-0.00142223 5.28113 1.10287 1.42279 4.6681 0.28342C6.34213 -0.253575 8.1665 -0.0173319 9.64182 0.905846ZM5.07254 1.52827C2.18783 2.45058 1.46335 5.52697 2.24673 7.95303C3.4794 11.7556 8.34938 14.8302 9.64358 15.5913C10.9422 14.8224 15.8473 11.7137 17.0404 7.95652C17.8238 5.52784 17.0967 2.45145 14.2076 1.52827C12.8079 1.08281 11.1752 1.35392 10.048 2.21869C9.81239 2.39827 9.48532 2.40176 9.24794 2.22392C8.05396 1.33387 6.49423 1.07322 5.07254 1.52827ZM13.3635 3.25947C14.5619 3.64391 15.4016 4.69611 15.5044 5.94009C15.5335 6.30012 15.2635 6.61569 14.9004 6.64446C14.882 6.6462 14.8644 6.64707 14.8459 6.64707C14.5057 6.64707 14.2173 6.38816 14.1891 6.04644C14.1311 5.32986 13.6475 4.72487 12.9591 4.50432C12.6118 4.39274 12.4219 4.02399 12.5336 3.68139C12.647 3.33793 13.0154 3.15137 13.3635 3.25947Z" fill="#B1B8C7"/>
</svg>
