<svg width="17" height="17" viewBox="0 0 17 17" fill="none" xmlns="http://www.w3.org/2000/svg">
<path fill-rule="evenodd" clip-rule="evenodd" d="M9.66753 10.8777C10.5839 10.8777 11.3299 11.6183 11.3299 12.5286V14.8699C11.3299 15.0655 11.4867 15.2223 11.6876 15.2269H13.1383C14.2816 15.2269 15.2109 14.3089 15.2109 13.1809V6.5407C15.2056 6.15252 15.0207 5.78717 14.7033 5.54436L9.68504 1.54227C9.01143 1.00871 8.06913 1.00871 7.39323 1.54379L2.40926 5.54284C2.07969 5.79326 1.89473 6.15861 1.89092 6.55364V13.1809C1.89092 14.3089 2.82028 15.2269 3.96352 15.2269H5.42796C5.63423 15.2269 5.80168 15.0632 5.80168 14.8623C5.80168 14.8181 5.80701 14.774 5.81614 14.7321V12.5286C5.81614 11.6236 6.5575 10.8838 7.46706 10.8777H9.66753ZM13.1383 16.3686H11.6739C10.8351 16.3488 10.1882 15.6904 10.1882 14.8699V12.5286C10.1882 12.2478 9.95448 12.0194 9.66753 12.0194H7.47087C7.19001 12.0209 6.95786 12.25 6.95786 12.5286V14.8623C6.95786 14.9194 6.95025 14.9742 6.93426 15.0259C6.85206 15.7795 6.20813 16.3686 5.42796 16.3686H3.96352C2.19081 16.3686 0.749207 14.9384 0.749207 13.1809V6.54831C0.756818 5.79174 1.10542 5.0991 1.70749 4.64317L6.68156 0.650969C7.77685 -0.216736 9.30294 -0.216736 10.3959 0.649446L15.4058 4.64545C15.9942 5.09377 16.3428 5.78489 16.3527 6.53233V13.1809C16.3527 14.9384 14.9111 16.3686 13.1383 16.3686Z" fill="#B1B8C7"/>
</svg>
