<svg width="24" height="24" viewBox="0 0 24 24" fill="none" xmlns="http://www.w3.org/2000/svg">
<path d="M18.75 13.519C19.5 12.3038 20.1 10.7848 20.1 9.11394C20.1 4.55698 16.5 0.911407 12 0.911407C7.49999 0.911407 3.89999 4.55698 3.89999 9.11394C3.89999 10.7848 4.34999 12.3038 5.24999 13.519C5.39999 13.8228 12 22.481 12 22.481C12 22.481 18.6 13.8228 18.75 13.519Z" stroke="#82A4D0" stroke-width="1.25" stroke-miterlimit="10"/>
<path d="M12 11.5443C13.4083 11.5443 14.55 10.3882 14.55 8.96204C14.55 7.53589 13.4083 6.37976 12 6.37976C10.5917 6.37976 9.44998 7.53589 9.44998 8.96204C9.44998 10.3882 10.5917 11.5443 12 11.5443Z" stroke="#82A4D0" stroke-width="1.25" stroke-miterlimit="10"/>
</svg>
