<svg width="24" height="24" viewBox="0 0 24 24" fill="none" xmlns="http://www.w3.org/2000/svg">
<path fill-rule="evenodd" clip-rule="evenodd" d="M12 1C18.0653 1 23 5.93466 23 12C23 18.0653 18.0653 23 12 23C5.93466 23 1 18.0653 1 12C1 5.93466 5.93466 1 12 1ZM12 2.59251C6.81266 2.59251 2.59251 6.81372 2.59251 12C2.59251 17.1873 6.81266 21.4075 12 21.4075C17.1873 21.4075 21.4075 17.1873 21.4075 12C21.4075 6.81372 17.1873 2.59251 12 2.59251ZM16.1104 7.89016C16.3195 8.10037 16.396 8.40931 16.3068 8.69066L14.6166 14.0935C14.5391 14.343 14.3427 14.5384 14.0943 14.6159L8.6914 16.3071C8.61284 16.3315 8.53215 16.3432 8.45359 16.3432C8.2455 16.3432 8.04166 16.2615 7.88984 16.1107C7.68069 15.9005 7.60425 15.5915 7.69343 15.3102L9.38467 9.90734C9.46217 9.65678 9.65752 9.46249 9.90596 9.38499L15.3088 7.69375C15.5923 7.6035 15.9002 7.68101 16.1104 7.89016ZM14.3331 9.6674L10.7797 10.78L9.66814 14.3335L13.2205 13.2208L14.3331 9.6674Z" fill="#82A4D0"/>
</svg>
