<svg width="16" height="16" viewBox="0 0 16 16" fill="none" xmlns="http://www.w3.org/2000/svg">
<g clip-path="url(#clip0_6_224)">
<path d="M5.88177 12.6768H10.104" stroke="#B1B8C7" stroke-width="1.1995" stroke-miterlimit="10"/>
<path d="M13.4626 12.6768H14.4222C15.094 12.6768 15.5738 12.101 15.5738 11.5253V9.70202C15.5738 9.12627 15.094 8.64647 14.6142 8.55051L13.6546 5.76768C13.4626 5.28788 13.0788 5 12.599 5H5.21012C4.82628 5 4.34648 5.28788 4.25052 5.76768L2.52325 8.55051H1.65961C1.08385 8.64647 0.700012 9.12627 0.700012 9.70202V11.5253C0.700012 12.197 1.27577 12.6768 1.85153 12.6768H2.52325" stroke="#B1B8C7" stroke-width="1.1995" stroke-miterlimit="10"/>
<path d="M4.15452 14.5C5.10847 14.5 5.88179 13.7267 5.88179 12.7727C5.88179 11.8188 5.10847 11.0454 4.15452 11.0454C3.20057 11.0454 2.42725 11.8188 2.42725 12.7727C2.42725 13.7267 3.20057 14.5 4.15452 14.5Z" stroke="#B1B8C7" stroke-width="1.1995" stroke-miterlimit="10"/>
<path d="M11.7354 14.5C12.6893 14.5 13.4627 13.7267 13.4627 12.7727C13.4627 11.8188 12.6893 11.0454 11.7354 11.0454C10.7814 11.0454 10.0081 11.8188 10.0081 12.7727C10.0081 13.7267 10.7814 14.5 11.7354 14.5Z" stroke="#B1B8C7" stroke-width="1.1995" stroke-miterlimit="10"/>
<path d="M2.52319 8.55048H14.6141" stroke="#B1B8C7" stroke-width="1.1995" stroke-miterlimit="10"/>
</g>
<defs>
<clipPath id="clip0_6_224">
<rect width="16" height="16" fill="white"/>
</clipPath>
</defs>
</svg>
