<svg width="32" height="32" viewBox="0 0 32 32" fill="none" xmlns="http://www.w3.org/2000/svg">
<g clip-path="url(#clip0_32_37)">
<path d="M31.9663 11.4472C31.1858 8.84553 29.6248 7.28455 27.0232 6.50406C26.5029 6.2439 26.2427 6.2439 25.7224 6.2439C25.4622 6.2439 25.4622 6.2439 25.4622 5.98374C24.9419 2.60163 22.3403 0.520325 19.2183 0C18.698 0 18.4379 0 17.9175 0C14.0151 0 9.85249 0 5.95005 0H5.68989C5.42972 1.04065 5.16956 2.0813 4.9094 3.12195C3.86875 8.84553 2.56793 14.3089 1.26712 20.0325C1.00696 21.8537 0.486634 23.935 -0.0336914 25.7561C-0.0336914 25.7561 -0.0336914 25.7561 -0.0336914 26.0163C2.56793 26.0163 4.9094 26.0163 7.51102 26.0163C7.25086 26.5366 7.25086 27.3171 6.9907 27.8374C6.73054 29.1382 6.47037 30.439 6.21021 31.7398V32C9.33216 32 12.7143 32 15.8362 32C16.0964 31.2195 16.3566 30.1789 16.3566 29.3984C16.8769 27.8374 17.137 26.0163 17.6574 24.4553C17.6574 24.1951 17.9175 24.1951 18.1777 24.1951C19.4785 24.1951 20.7793 24.1951 22.0801 24.1951C26.7631 23.935 30.4053 20.813 31.7061 16.3902C31.9663 14.5691 32.2265 13.0081 31.9663 11.4472ZM7.77119 23.6748C6.21021 23.6748 4.64924 23.6748 3.08826 23.6748C4.64924 16.6504 6.21021 9.62602 7.77119 2.60163C7.77119 2.60163 7.77119 2.60163 8.03135 2.60163C11.4135 2.60163 14.5354 2.60163 17.9175 2.60163C19.2183 2.60163 20.5192 3.12195 21.5598 3.90244C22.3403 4.42276 22.8606 5.20325 22.8606 5.98374C19.2183 5.98374 15.5761 5.98374 11.9338 5.98374C11.9338 7.02439 11.6736 8.06504 11.4135 9.10569C10.3728 13.7886 9.33216 18.4715 8.29151 23.1545C8.03135 23.4146 8.03135 23.6748 7.77119 23.6748ZM23.1208 8.58537C23.1208 9.10569 22.8606 9.62602 22.8606 10.1463C22.0801 13.2683 19.7387 15.0894 16.6167 15.3496C15.0557 15.6098 13.7549 15.6098 12.4541 15.6098C12.9744 13.2683 13.4948 10.9268 14.0151 8.58537C17.137 8.58537 19.9988 8.58537 23.1208 8.58537ZM22.8606 21.3333C22.0801 21.5935 21.5598 21.5935 20.7793 21.5935C19.2183 21.5935 17.6574 21.5935 16.3566 21.5935H16.0964C15.3159 24.1951 14.7956 27.0569 14.2753 29.6585C12.7143 29.6585 11.1533 29.6585 9.59232 29.6585C10.3728 25.7561 11.4135 21.8537 12.1939 17.9512C13.2346 17.9512 14.2753 17.9512 15.0557 17.9512C16.6167 17.9512 18.4379 17.6911 19.9988 16.9106C22.6005 15.8699 24.4216 13.7886 25.2021 11.187C25.2021 10.4065 25.2021 9.62602 25.4622 8.84553V8.58537C27.2834 8.58537 29.1045 10.4065 29.3647 12.2276C30.1452 16.6504 27.0232 20.5528 22.8606 21.3333Z" fill="#82A4D0"/>
</g>
<defs>
<clipPath id="clip0_32_37">
<rect width="32" height="32" fill="white"/>
</clipPath>
</defs>
</svg>
