<svg width="16" height="16" viewBox="0 0 16 16" fill="none" xmlns="http://www.w3.org/2000/svg">
<path d="M7.82426 7.42123C9.69199 7.42123 11.2061 5.90714 11.2061 4.03941C11.2061 2.17168 9.69199 0.657593 7.82426 0.657593C5.95654 0.657593 4.44244 2.17168 4.44244 4.03941C4.44244 5.90714 5.95654 7.42123 7.82426 7.42123Z" stroke="#EEA86C" stroke-width="1.17424" stroke-miterlimit="10"/>
<path d="M7.82424 14.8424C10.6424 14.8424 13.6485 13.4333 13.6485 13.4333C13.6485 13.4333 13.3667 12.7758 12.7091 11.9303C11.9576 11.0848 10.7364 9.58182 7.82424 9.58182C4.91212 9.58182 3.69091 10.9909 2.93939 11.9303C2.18788 12.7758 2 13.4333 2 13.4333C2 13.4333 5.00606 14.8424 7.82424 14.8424Z" stroke="#EEA86C" stroke-width="1.17424" stroke-miterlimit="10"/>
</svg>
