<svg width="16" height="16" viewBox="0 0 16 16" fill="none" xmlns="http://www.w3.org/2000/svg">
<g clip-path="url(#clip0_1_603)">
<path d="M11.2432 11.2432L15.5675 15.5675" stroke="#EEA86C" stroke-width="1.35135" stroke-miterlimit="10"/>
<path d="M7.02703 1.2973C10.1622 1.2973 12.6486 3.78378 12.6486 6.91892C12.6486 10.0541 10.1622 12.5405 7.02703 12.5405C3.89189 12.5405 1.2973 10.0541 1.2973 7.02703C1.2973 3.89189 3.89189 1.2973 7.02703 1.2973ZM7.02703 0C3.13514 0 0 3.13514 0 7.02703C0 10.9189 3.13514 14.0541 7.02703 14.0541C10.9189 14.0541 14.0541 10.9189 14.0541 7.02703C13.9459 3.13514 10.8108 0 7.02703 0Z" fill="#3845AB"/>
</g>
<defs>
<clipPath id="clip0_1_603">
<rect width="16" height="16" fill="white"/>
</clipPath>
</defs>
</svg>
