<svg width="16" height="16" viewBox="0 0 16 16" fill="none" xmlns="http://www.w3.org/2000/svg">
<path fill-rule="evenodd" clip-rule="evenodd" d="M8.00184 2C10.897 2.00224 13.4968 4.16231 14.9569 7.77907C15.0143 7.9199 15.0143 8.07935 14.9569 8.22018C13.4975 11.8377 10.897 13.9978 8.00184 14H7.99764C5.10247 13.9978 2.50271 11.8377 1.04252 8.22018C0.985825 8.07935 0.985825 7.9199 1.04252 7.77907C2.50271 4.16231 5.10317 2.00224 7.99764 2H8.00184ZM7.99974 3.11767C5.59457 3.11841 3.40079 4.93871 2.09881 7.99963C3.40079 11.0613 5.59387 12.8816 7.99974 12.8823C10.4056 12.8816 12.5987 11.0613 13.9007 7.99963C12.5987 4.93871 10.4056 3.11841 7.99974 3.11767ZM7.99953 5.08535C9.50941 5.08535 10.7379 6.39302 10.7379 8.00022C10.7379 9.60668 9.50941 10.9136 7.99953 10.9136C6.48965 10.9136 5.26186 9.60668 5.26186 8.00022C5.26186 6.39302 6.48965 5.08535 7.99953 5.08535ZM7.99953 6.20302C7.06854 6.20302 6.31185 7.00923 6.31185 8.00022C6.31185 8.99048 7.06854 9.79594 7.99953 9.79594C8.93052 9.79594 9.68791 8.99048 9.68791 8.00022C9.68791 7.00923 8.93052 6.20302 7.99953 6.20302Z" fill="#B1B8C7"/>
</svg>
