<svg width="16" height="16" viewBox="0 0 16 16" fill="none" xmlns="http://www.w3.org/2000/svg">
<path d="M6.05701 15.0187V12.5725C6.05701 11.948 6.56693 11.4418 7.19594 11.4418H9.49528C9.79734 11.4418 10.087 11.561 10.3006 11.773C10.5142 11.985 10.6342 12.2726 10.6342 12.5725V15.0187C10.6323 15.2783 10.7348 15.5279 10.9191 15.7121C11.1033 15.8964 11.354 16 11.6155 16H13.1842C13.9169 16.0019 14.6202 15.7143 15.1389 15.2006C15.6577 14.687 15.9492 13.9896 15.9492 13.2623V6.29348C15.9492 5.70597 15.6868 5.14867 15.2329 4.77173L9.89641 0.540695C8.96812 -0.201151 7.63808 -0.177198 6.7375 0.597583L1.5228 4.77173C1.04738 5.13756 0.763233 5.69651 0.749191 6.29348V13.2551C0.749191 14.7711 1.9871 16 3.51413 16H5.04702C5.59017 16 6.03159 15.565 6.03552 15.0258L6.05701 15.0187Z" fill="white"/>
</svg>
